<svg class="img-fluid" id="outputsvg" xmlns="http://www.w3.org/2000/svg" <g id="l37YRv0ADzqiohgArVKptWM" fill="rgb(255,255,255)" ><g><path id="p68AfJ4s7" d="M0 1410 l0 -1410 1410 0 1410 0 0 1410 0 1410 -1410 0 -1410 0 0 -1410z"></path></g></g><g id="l12cCkmoHveK6l29IIT0ovu" fill="rgb(247,240,223)" ><g ><path id="pvbOkhklq" d="M980 2320 c-174 -14 -312 -90 -399 -221 -80 -120 -81 -126 -81 -678 0 -417 2 -495 16 -542 54 -183 208 -334 388 -378 34 -8 186 -12 506 -13 506 0 512 1 634 65 134 71 250 234 276 385 8 48 10 207 8 518 -3 431 -4 451 -25 509 -63 174 -176 283 -353 341 -49 16 -102 18 -465 20 -226 1 -453 -2 -505 -6z m15 -723 c22 -5 47 -15 55 -22 8 -7 84 -47 168 -89 294 -147 362 -189 362 -223 0 -19 -34 -3 -293 133 -203 108 -221 115 -233 99 -7 -10 -23 -17 -36 -16 -101 7 -98 4 -98 85 0 51 2 57 18 51 9 -4 35 -12 57 -18z m-55 -453 c0 -67 17 -88 105 -130 137 -68 658 -336 696 -360 20 -12 47 -24 60 -27 22 -4 22 -4 -4 -6 -18 -1 -168 70 -430 202 -456 229 -447 223 -447 331 0 43 3 57 10 46 5 -8 10 -33 10 -56z"></path></g></g><g id="lPZT1K0rPLJowzH3NIdqM6" fill="rgb(243,231,211)" ><g ><path id="pyXPqvG5i" d="M980 2320 c-174 -14 -312 -90 -399 -221 -80 -120 -81 -126 -81 -678 0 -417 2 -495 16 -542 53 -181 201 -328 379 -375 36 -10 125 -14 320 -14 640 0 662 0 717 16 203 60 362 243 389 449 6 50 9 247 7 515 -3 416 -4 438 -25 495 -63 174 -176 283 -353 341 -49 16 -102 18 -465 20 -226 1 -453 -2 -505 -6z m15 -723 c22 -5 47 -15 55 -22 8 -7 84 -47 168 -89 294 -147 362 -189 362 -223 0 -19 -34 -3 -293 133 -206 109 -221 116 -234 98 -17 -23 -16 -35 3 -62 15 -22 14 -22 -23 -23 -21 -1 -42 -1 -46 0 -5 1 -6 -3 -3 -8 4 -5 0 -12 -6 -15 -15 -6 26 -46 47 -46 7 0 15 -13 18 -29 5 -25 21 -38 112 -86 58 -31 103 -60 100 -65 -3 -4 2 -7 11 -6 10 0 18 -8 20 -21 2 -13 3 -23 1 -23 -2 0 -47 22 -100 50 -107 55 -132 60 -142 30 -12 -37 20 -64 173 -143 135 -71 149 -81 146 -103 -1 -15 2 -22 9 -17 6 4 8 0 4 -10 -3 -8 1 -21 9 -28 12 -10 13 -9 8 7 -4 10 5 4 20 -15 14 -19 26 -40 26 -47 0 -13 52 -44 252 -148 140 -72 138 -93 -3 -25 -295 144 -334 161 -309 132 14 -15 6 -11 -17 11 -24 22 -117 78 -220 131 -137 70 -183 99 -200 125 -22 32 -23 40 -23 298 0 248 1 264 18 257 9 -4 35 -12 57 -18z"></path></g></g><g id="l4KavdGXv8qg5IP5Ib88qVm" fill="rgb(238,210,174)" ><g  ><path id="pZ8zYxyaw" d="M980 2320 c-174 -14 -312 -90 -399 -221 -80 -120 -81 -126 -81 -678 0 -417 2 -495 16 -542 53 -181 202 -328 379 -375 63 -17 940 -20 1013 -3 171 38 341 198 393 372 20 64 21 93 23 550 1 472 1 483 -21 542 -63 175 -176 283 -353 341 -49 16 -102 18 -465 20 -226 1 -453 -2 -505 -6z m1105 -537 c47 -40 39 -43 -14 -5 -21 15 -48 34 -60 42 -11 8 -21 18 -21 23 0 11 46 -18 95 -60z m-1090 -186 c22 -5 47 -15 55 -22 8 -7 84 -47 168 -89 294 -147 362 -189 362 -223 0 -19 -34 -3 -293 133 -206 109 -221 116 -234 98 -15 -21 -16 -34 -4 -52 5 -8 152 -89 327 -182 251 -132 320 -172 322 -189 2 -11 10 -21 18 -21 8 0 14 -4 14 -10 0 -5 -4 -10 -9 -10 -8 0 -235 114 -506 255 -77 40 -146 70 -152 68 -7 -3 -13 -18 -13 -34 0 -35 15 -45 240 -159 170 -86 227 -115 323 -170 51 -28 55 -33 42 -47 -14 -13 -47 1 -301 128 -196 98 -288 139 -295 132 -6 -6 -9 -23 -7 -38 3 -25 27 -40 273 -166 149 -77 291 -151 318 -165 38 -20 47 -30 48 -52 1 -97 -4 -88 73 -126 64 -32 68 -36 39 -36 -27 0 -212 83 -418 187 l-30 16 25 -29 c14 -16 7 -12 -17 10 -24 22 -117 78 -220 131 -137 70 -183 99 -200 125 -22 32 -23 40 -23 298 0 248 1 264 18 257 9 -4 35 -12 57 -18z m430 -868 c9 -17 15 -33 13 -35 -3 -2 -12 12 -21 31 -21 43 -13 47 8 4z"></path></g></g><g id="l5FXxw7sOXIfOLEJWzwwi6E" fill="rgb(201,193,195)"  ><g  ><path id="pm0tSp3A5" d="M980 2319 c-173 -12 -311 -88 -399 -220 -80 -120 -81 -126 -81 -678 0 -417 2 -495 16 -542 55 -186 215 -340 394 -378 59 -13 963 -11 1008 1 13 4 57 23 99 44 92 44 193 140 240 230 61 116 63 133 66 655 2 465 2 475 -20 534 -63 175 -176 283 -353 341 -49 16 -99 18 -465 19 -226 1 -453 -2 -505 -6z m1009 -466 c82 -45 206 -168 245 -243 l29 -55 -44 40 c-78 72 -183 150 -239 179 -49 26 -110 80 -110 98 0 7 19 16 39 17 8 1 44 -15 80 -36z m-994 -256 c22 -5 47 -15 55 -22 8 -7 84 -47 168 -89 294 -147 362 -189 362 -223 0 -19 -34 -3 -293 133 -206 109 -221 116 -234 98 -15 -21 -16 -34 -4 -52 5 -8 152 -89 327 -182 251 -132 320 -172 322 -189 2 -11 10 -21 18 -21 8 0 14 -4 14 -10 0 -16 -7 -13 -119 41 -127 62 -209 99 -219 99 -12 0 129 -80 233 -132 55 -28 101 -53 103 -57 1 -3 7 -13 12 -21 9 -13 11 -13 20 0 6 10 10 11 10 3 0 -7 6 -13 13 -13 8 0 20 -11 27 -25 14 -27 54 -35 63 -12 3 6 6 -48 6 -122 1 -125 -1 -136 -21 -158 -38 -41 -77 -32 -270 62 -97 47 -181 85 -187 85 -6 0 1 -16 14 -36 14 -20 25 -44 25 -53 -1 -9 -12 4 -25 29 -38 73 -84 108 -272 205 -137 70 -183 99 -200 125 -22 32 -23 40 -23 298 0 248 1 264 18 257 9 -4 35 -12 57 -18z m452 -979 c-2 -13 -4 -3 -4 22 0 25 2 35 4 23 2 -13 2 -33 0 -45z"></path></g></g><g id="l2qHqcNGtqgjjQvcCFA0EvR" fill="rgb(129,186,220)"  ><g  ><path id="pduqIfspo" d="M1035 2319 c-132 -4 -158 -8 -212 -31 -157 -66 -261 -180 -307 -337 -24 -81 -24 -991 0 -1072 53 -181 202 -328 379 -375 65 -18 932 -20 1004 -3 191 46 357 207 406 394 12 49 15 139 15 526 0 442 -1 470 -20 533 -55 176 -172 291 -360 352 -48 15 -98 18 -405 18 -192 1 -417 -1 -500 -5z m933 -453 c111 -56 216 -158 269 -261 l26 -50 -44 40 c-77 70 -182 149 -239 179 -49 26 -110 80 -110 98 0 7 19 16 38 17 7 1 34 -10 60 -23z m-973 -269 c22 -5 47 -15 55 -22 8 -7 84 -47 168 -89 293 -147 362 -189 362 -223 0 -17 -15 -11 -209 86 -89 45 -165 81 -169 81 -18 0 84 -56 361 -199 l172 -89 73 2 72 1 0 -239 c0 -232 -1 -240 -22 -263 -38 -41 -77 -32 -270 62 -97 47 -181 85 -187 85 -6 0 1 -16 14 -36 14 -20 25 -44 25 -53 -1 -9 -12 4 -25 29 -38 73 -90 112 -272 205 -94 48 -182 98 -195 112 -23 24 -23 27 -26 300 -3 262 -2 275 15 268 10 -4 36 -12 58 -18z m452 -979 c-2 -13 -4 -3 -4 22 0 25 2 35 4 23 2 -13 2 -33 0 -45z"></path><path id="pnWkeyalC" d="M1060 1495 c0 -5 68 -35 79 -35 8 1 -61 39 -71 40 -5 0 -8 -2 -8 -5z"></path></g></g><g id="ljLKTQGDZ1xRe8IqLm3Tli" fill="rgb(251,188,77)"  ><g  ><path id="pHLB58oa5" d="M870 2301 c-180 -57 -303 -179 -354 -350 -14 -47 -16 -122 -16 -534 0 -450 1 -484 20 -547 38 -126 157 -268 272 -324 111 -54 135 -56 616 -56 291 0 460 4 491 11 191 46 357 207 406 394 12 49 15 139 15 526 0 442 -1 470 -20 533 -56 180 -185 303 -367 350 -51 14 -135 16 -534 15 -425 0 -480 -2 -529 -18z m1098 -435 c111 -56 216 -158 269 -261 l26 -50 -44 40 c-77 70 -182 149 -239 179 -49 26 -110 80 -110 98 0 7 19 16 38 17 7 1 34 -10 60 -23z m-978 -71 c16 -8 40 -16 53 -17 22 -2 23 -4 10 -30 -15 -28 -10 -68 8 -68 6 0 7 -5 4 -10 -3 -6 2 -13 11 -17 16 -6 16 -7 -2 -13 -15 -6 2 -18 76 -55 117 -58 563 -295 570 -303 3 -2 -1 -7 -7 -9 -7 -3 -13 -11 -13 -19 0 -19 49 -18 57 2 8 22 -13 40 -102 89 -46 25 -73 45 -66 49 6 4 9 11 6 16 -10 16 13 20 29 5 8 -9 18 -16 21 -15 21 1 25 -1 19 -12 -4 -6 -3 -8 4 -4 6 3 22 1 37 -6 19 -9 28 -9 37 0 9 9 20 5 47 -15 20 -15 39 -32 44 -39 4 -7 16 -11 27 -9 20 4 20 -2 20 -322 0 -322 0 -327 -22 -350 -38 -41 -77 -32 -270 62 -97 47 -181 85 -187 85 -6 0 1 -16 14 -36 14 -20 25 -44 25 -53 -1 -9 -10 2 -22 24 -40 79 -85 113 -263 202 -93 46 -183 98 -200 114 l-30 29 -3 332 c-1 182 -1 336 1 342 3 6 5 16 7 21 3 16 20 45 26 45 3 0 18 -7 34 -15z m580 -351 c0 -2 -13 2 -30 11 -16 9 -30 18 -30 21 0 2 14 -2 30 -11 17 -9 30 -18 30 -21z m-123 -826 c-2 -13 -4 -3 -4 22 0 25 2 35 4 23 2 -13 2 -33 0 -45z"></path><path id="p8k8IK9iD" d="M1054 1188 c-4 -6 -3 -8 3 -5 6 4 52 -14 103 -39 51 -24 95 -43 97 -41 5 5 -171 97 -185 97 -6 0 -14 -5 -18 -12z"></path></g></g><g id="l7eqnkxnDwiiEe6aADofTUg" fill="rgb(17,215,250)"  ><g  ><path id="pZ7aqLvp9" d="M870 2301 c-180 -57 -303 -179 -354 -350 -14 -47 -16 -122 -16 -534 0 -450 1 -484 20 -547 38 -126 157 -268 272 -324 100 -48 154 -56 391 -56 l218 0 16 38 c9 20 18 62 21 93 3 45 0 64 -21 105 -41 79 -88 115 -267 204 -91 45 -178 95 -195 111 l-30 29 -3 332 c-1 182 0 339 4 347 4 9 8 22 10 30 5 28 21 33 53 17 16 -9 41 -17 54 -18 22 -2 23 -4 10 -30 -15 -28 -10 -68 8 -68 6 0 7 -5 4 -10 -3 -6 2 -13 11 -17 16 -6 16 -7 -2 -13 -15 -6 2 -18 76 -55 117 -58 563 -295 570 -303 3 -2 -1 -7 -7 -9 -7 -3 -13 -11 -13 -19 0 -19 49 -18 57 2 8 22 -13 40 -102 89 -46 25 -73 45 -66 49 6 4 9 11 6 16 -10 16 13 20 29 5 8 -9 18 -16 21 -15 21 1 25 -1 19 -12 -4 -6 -3 -8 4 -4 6 3 22 1 37 -6 19 -9 28 -9 37 0 9 9 20 5 47 -15 20 -15 39 -32 44 -39 4 -7 16 -11 27 -9 20 4 20 -2 20 -324 l0 -328 -23 -21 c-39 -37 -83 -29 -218 39 -67 33 -123 59 -124 57 -2 -2 1 -23 6 -48 12 -52 4 -111 -22 -163 l-19 -37 187 0 c132 0 204 5 243 15 190 50 346 205 395 390 20 77 22 365 3 366 -7 0 -22 3 -33 6 -31 7 -67 7 -97 -1 l-28 -8 0 79 c0 127 -42 251 -112 332 -80 94 -177 152 -385 233 l-108 42 47 7 c26 4 51 10 56 12 17 11 232 -52 310 -92 195 -98 320 -272 351 -486 6 -43 9 19 10 221 1 258 -1 288 -19 348 -56 180 -185 303 -367 350 -51 14 -135 16 -534 15 -425 0 -480 -2 -529 -18z m1125 -626 l60 -60 -45 -5 c-44 -6 -47 -4 -105 50 -33 31 -72 66 -87 77 l-28 21 27 0 c15 0 29 5 31 11 6 19 82 -29 147 -94z m-425 -231 c0 -2 -13 2 -30 11 -16 9 -30 18 -30 21 0 2 14 -2 30 -11 17 -9 30 -18 30 -21z"></path></g></g><g id="l2uSKiWky7DxW9CHAC6vRYv" fill="rgb(248,167,50)"  ><g  ><path id="ppzbH2R0I" d="M870 2301 c-180 -57 -303 -179 -354 -350 -23 -77 -24 -938 -1 -1044 21 -99 77 -197 156 -272 113 -106 221 -145 406 -145 113 0 114 0 123 26 17 43 11 92 -20 186 -17 50 -28 93 -25 96 10 10 65 -51 86 -95 16 -34 20 -57 17 -110 -2 -38 -8 -76 -12 -85 -7 -15 -3 -18 28 -18 31 0 38 4 47 28 20 50 22 125 6 180 -31 103 -109 184 -265 272 -50 29 -101 63 -114 77 l-23 25 -3 331 c-1 182 0 338 4 346 4 9 8 22 10 30 5 26 21 33 44 21 39 -21 82 -30 77 -17 -2 6 1 17 7 23 8 9 23 7 59 -7 69 -27 151 -70 159 -83 5 -6 8 -7 8 -1 0 6 3 5 8 -1 4 -6 62 -37 130 -69 67 -32 122 -62 122 -67 0 -5 4 -7 9 -3 5 3 16 -1 24 -9 8 -8 17 -12 21 -9 3 4 6 1 6 -6 0 -7 5 -9 10 -6 5 3 10 1 10 -5 0 -6 4 -9 9 -5 5 3 13 1 16 -5 4 -6 1 -9 -7 -8 -7 2 -12 -2 -11 -9 3 -12 -231 94 -276 126 -14 10 -82 47 -150 81 -133 68 -146 69 -164 16 -6 -19 -6 -31 2 -39 9 -9 11 -7 6 8 -6 19 -6 19 8 3 8 -10 17 -15 20 -11 4 3 7 0 7 -7 0 -7 3 -11 6 -7 3 3 11 2 18 -4 6 -5 146 -77 311 -160 226 -113 304 -148 316 -140 11 7 25 2 50 -17 19 -14 37 -32 42 -39 4 -6 16 -10 27 -8 20 4 20 -2 20 -324 l0 -328 -23 -21 c-39 -37 -83 -29 -218 39 -67 33 -123 59 -124 57 -2 -2 1 -23 6 -48 12 -52 4 -111 -22 -163 l-19 -37 187 0 c132 0 204 5 243 15 190 50 346 205 395 390 20 77 22 365 3 366 -7 0 -22 3 -33 6 -31 7 -67 7 -97 -1 l-28 -8 0 79 c0 127 -42 251 -112 332 -80 94 -177 152 -385 233 l-108 42 47 7 c26 4 51 10 56 12 17 11 232 -52 310 -92 195 -98 320 -272 351 -486 6 -43 9 19 10 221 1 258 -1 288 -19 348 -56 180 -185 303 -367 350 -51 14 -135 16 -534 15 -425 0 -480 -2 -529 -18z m130 -324 c-21 -89 -49 -149 -107 -229 -44 -61 -59 -75 -69 -67 -10 9 -15 7 -20 -5 -3 -9 -12 -16 -20 -16 -8 0 -41 -28 -74 -62 -33 -33 -60 -58 -60 -54 0 4 57 67 128 139 133 138 173 198 208 311 22 69 31 58 14 -17z m995 -302 l60 -60 -45 -5 c-44 -6 -47 -4 -105 50 -33 31 -72 66 -87 77 l-28 21 27 0 c15 0 29 5 31 11 6 19 82 -29 147 -94z m-212 -254 c-7 -10 -52 23 -62 47 -11 24 -9 23 27 -9 21 -19 37 -36 35 -38z"></path><path id="pDnm3uOyA" d="M1071 1196 c10 -9 69 -36 69 -32 0 6 -55 36 -66 36 -4 0 -5 -2 -3 -4z"></path></g></g><g id="l6KLa6RhOwvbj3PgZYHTezd" fill="rgb(88,160,213)"><g ><path id="pYyikOyTw" d="M870 2301 c-180 -57 -303 -179 -354 -350 -23 -77 -24 -938 -1 -1044 21 -99 77 -197 156 -272 113 -106 221 -145 406 -145 113 0 114 0 123 26 17 43 11 92 -20 186 -17 50 -28 93 -25 96 10 10 65 -51 86 -95 16 -34 20 -57 17 -110 -2 -38 -8 -76 -12 -85 -7 -15 -3 -18 28 -18 31 0 38 4 47 28 20 50 22 125 6 180 -31 103 -109 184 -265 272 -50 29 -101 63 -114 77 l-23 25 -3 331 c-1 182 0 338 4 346 4 9 8 22 10 30 5 26 21 33 44 21 39 -21 82 -30 77 -17 -2 6 1 17 7 23 8 9 23 7 59 -7 69 -27 151 -70 159 -83 5 -6 8 -7 8 -1 0 6 3 5 8 -1 4 -6 62 -37 130 -69 67 -32 122 -62 122 -67 0 -5 4 -7 9 -3 5 3 16 -1 24 -9 8 -8 17 -12 21 -9 3 4 6 1 6 -6 0 -7 5 -9 10 -6 5 3 10 1 10 -5 0 -6 4 -9 9 -5 5 3 13 1 16 -5 4 -6 1 -9 -7 -8 -7 2 -12 -2 -11 -9 3 -12 -231 94 -276 126 -14 10 -82 47 -150 81 -133 68 -146 69 -164 16 -6 -19 -6 -31 2 -39 9 -9 11 -7 6 8 -6 19 -6 19 8 3 8 -10 17 -15 20 -11 4 3 7 0 7 -7 0 -7 3 -11 6 -7 3 3 11 2 18 -4 6 -5 146 -77 311 -160 226 -113 304 -148 316 -140 11 7 25 2 50 -17 19 -14 37 -32 42 -39 4 -6 16 -10 27 -8 20 4 20 -2 20 -324 l0 -328 -23 -21 c-39 -37 -83 -29 -218 39 -67 33 -123 59 -125 57 -1 -2 2 -23 8 -46 12 -50 4 -116 -21 -166 l-19 -36 187 0 c130 0 202 5 241 15 191 51 346 205 394 391 17 66 21 171 8 192 -5 7 -29 14 -53 16 -24 1 -57 8 -72 14 -16 7 -39 12 -53 12 -28 0 -28 -3 -8 51 8 24 18 82 21 129 10 162 -41 294 -156 403 -77 72 -155 115 -336 186 -71 28 -143 61 -159 74 l-29 24 37 1 c20 1 40 4 45 6 11 7 358 -107 416 -136 184 -94 300 -253 340 -463 12 -66 13 -52 14 206 1 252 -1 283 -19 343 -56 180 -185 303 -367 350 -51 14 -135 16 -534 15 -425 0 -480 -2 -529 -18z m130 -324 c-21 -89 -49 -149 -107 -229 -44 -61 -59 -75 -69 -67 -10 9 -15 7 -20 -5 -3 -9 -12 -16 -20 -16 -8 0 -41 -28 -74 -62 -33 -33 -60 -58 -60 -54 0 4 57 67 128 139 133 138 173 198 208 311 22 69 31 58 14 -17z m826 -181 c110 -50 208 -136 250 -218 13 -26 24 -49 24 -52 0 -3 -19 -6 -42 -8 -42 -3 -44 -2 -81 54 -48 72 -132 149 -213 195 -35 20 -61 39 -59 43 9 15 72 8 121 -14z m44 -194 c30 -26 31 -27 8 -28 -13 0 -27 -2 -33 -5 -18 -7 -131 85 -127 104 3 15 10 14 62 -14 31 -17 72 -42 90 -57z m-87 -181 c-7 -10 -52 23 -62 47 -11 24 -9 23 27 -9 21 -19 37 -36 35 -38z"></path><path id="p3kDtJ8Fe" d="M1060 1635 c0 -3 42 -26 93 -51 113 -57 560 -294 567 -302 3 -2 -1 -7 -7 -9 -7 -3 -13 -11 -13 -19 0 -19 49 -18 56 1 12 31 26 23 -444 269 -199 104 -252 127 -252 111z"></path></g></g><g id="l5RXyI9suhqubrFZhX08TA0" fill="rgb(20,192,238)" ><g ><path id="pTTFWN81s" d="M875 2301 c-170 -49 -292 -163 -351 -328 -24 -68 -24 -68 -24 -533 0 -523 3 -553 67 -672 70 -130 220 -241 362 -268 29 -5 100 -10 158 -10 102 0 104 0 113 26 17 43 11 92 -20 186 -17 50 -28 93 -25 96 10 10 65 -51 86 -95 16 -34 20 -57 17 -110 -2 -38 -8 -76 -12 -85 -7 -15 -3 -18 28 -18 31 0 38 4 47 28 20 50 22 125 6 180 -31 104 -108 183 -265 272 -51 29 -103 66 -117 82 l-25 30 0 339 c0 252 3 339 12 339 6 0 8 3 5 6 -3 4 -2 15 4 26 25 46 -1 22 -51 -47 -42 -59 -56 -73 -66 -64 -11 9 -15 7 -20 -5 -3 -9 -12 -16 -20 -16 -8 0 -41 -28 -74 -62 -33 -33 -60 -58 -60 -54 0 5 55 65 123 135 133 136 167 185 209 301 26 73 27 74 26 32 -1 -24 -6 -45 -11 -49 -14 -8 41 -51 78 -62 18 -5 79 -35 136 -67 181 -101 230 -126 235 -121 3 3 13 -1 22 -8 60 -48 144 -121 187 -161 49 -46 49 -47 12 -25 -21 11 -36 17 -33 12 3 -5 -1 -14 -9 -21 -11 -9 -15 -9 -15 -1 0 7 -4 9 -10 6 -5 -3 -10 -1 -10 5 0 6 -4 8 -10 5 -5 -3 -10 -1 -10 5 0 6 -4 8 -10 5 -5 -3 -10 -1 -10 5 0 6 -5 8 -10 5 -5 -3 -10 -1 -10 5 0 6 -4 8 -10 5 -5 -3 -10 -1 -10 6 0 7 -3 9 -7 6 -7 -8 -156 71 -161 85 -2 4 -8 6 -13 2 -5 -3 -9 0 -9 6 0 6 -4 8 -10 5 -5 -3 -10 -1 -10 5 0 6 -4 8 -10 5 -5 -3 -10 -1 -10 5 0 6 -4 8 -10 5 -5 -3 -10 -1 -10 5 0 6 -4 8 -10 5 -5 -3 -10 -1 -10 5 0 6 -4 8 -10 5 -5 -3 -10 -1 -10 5 0 6 -4 8 -10 5 -5 -3 -10 -1 -10 5 0 6 -4 8 -10 5 -5 -3 -10 -1 -10 4 0 6 -3 10 -7 9 -12 -2 -63 24 -63 32 0 4 -10 7 -22 6 -13 -1 -26 3 -30 9 -5 6 -8 6 -8 -2 0 -6 80 -52 178 -101 302 -153 486 -252 505 -274 9 -11 17 -17 17 -14 0 3 8 -2 19 -11 60 -57 78 -70 94 -67 16 2 17 -19 17 -325 l0 -328 -23 -21 c-39 -37 -83 -29 -218 39 -67 33 -123 59 -125 57 -1 -2 2 -23 8 -46 12 -50 4 -116 -21 -166 l-19 -36 187 0 c130 0 202 5 241 15 191 51 346 205 394 391 17 66 21 171 8 192 -5 7 -29 14 -53 16 -24 1 -57 8 -72 14 -16 7 -39 12 -53 12 -28 0 -28 -3 -8 51 8 24 18 82 21 129 10 162 -41 294 -156 403 -77 72 -155 115 -336 186 -71 28 -143 61 -159 74 l-29 24 37 1 c20 1 40 4 45 6 11 7 358 -107 416 -136 184 -94 300 -253 340 -463 12 -66 13 -52 14 206 1 252 -1 283 -19 343 -56 180 -185 303 -367 350 -51 14 -134 16 -529 15 -413 0 -476 -2 -529 -18z m951 -505 c110 -50 208 -136 250 -218 13 -26 24 -49 24 -52 0 -3 -19 -6 -42 -8 -42 -3 -44 -2 -81 54 -48 72 -132 149 -213 195 -35 20 -61 39 -59 43 9 15 72 8 121 -14z m44 -194 c30 -26 31 -27 8 -28 -13 0 -27 -2 -33 -5 -18 -7 -131 85 -127 104 3 15 10 14 62 -14 31 -17 72 -42 90 -57z m-117 -141 c33 -36 34 -39 15 -44 -11 -3 -18 -3 -15 0 6 5 -25 41 -33 37 -3 -1 -6 9 -6 22 -1 13 -1 24 0 24 2 0 19 -18 39 -39z m-1040 -18 c-1 -20 1 -41 6 -47 5 -6 11 -45 15 -86 6 -66 5 -73 -8 -60 -8 8 -21 49 -29 91 -12 64 -12 82 -1 108 17 40 21 39 17 -6z m220 -492 c-2 -3 -16 8 -31 24 l-27 28 31 -24 c17 -13 30 -26 27 -28z m102 -111 c21 -22 37 -40 34 -40 -3 0 -23 18 -44 40 -21 22 -37 40 -34 40 3 0 23 -18 44 -40z"></path></g></g><g id="l4C016msczlY8WdfQ8tRLpO" fill="rgb(245,152,50)" ><g ><path id="p17NWhLD9M" d="M875 2301 c-170 -49 -292 -163 -351 -328 -23 -67 -24 -72 -22 -443 0 -229 4 -350 8 -310 20 173 66 255 245 440 155 161 209 244 245 382 20 79 26 60 10 -36 -9 -54 -8 -61 12 -77 11 -11 35 -23 53 -28 18 -5 79 -35 136 -67 181 -101 230 -126 235 -121 3 3 13 -1 22 -8 10 -8 33 -27 53 -43 54 -42 170 -145 271 -241 l88 -85 0 -336 0 -337 -23 -21 c-39 -37 -83 -29 -218 39 -67 33 -123 59 -125 57 -1 -2 2 -23 8 -46 12 -50 4 -116 -21 -166 l-19 -36 187 0 c130 0 202 5 241 15 191 51 346 205 394 391 17 66 21 171 8 192 -5 7 -29 14 -53 16 -24 1 -57 8 -72 14 -16 7 -39 12 -53 12 -28 0 -28 -3 -8 51 8 24 18 82 21 129 10 162 -41 294 -156 403 -77 72 -155 115 -336 186 -71 28 -143 61 -159 74 l-29 24 37 1 c20 1 40 4 45 6 11 7 358 -107 416 -136 184 -94 300 -253 340 -463 12 -66 13 -52 14 206 1 252 -1 283 -19 343 -56 180 -185 303 -367 350 -51 14 -134 16 -529 15 -413 0 -476 -2 -529 -18z m951 -505 c110 -50 208 -136 250 -218 13 -26 24 -49 24 -52 0 -3 -19 -6 -42 -8 -42 -3 -44 -2 -81 54 -48 72 -132 149 -213 195 -35 20 -61 39 -59 43 9 15 72 8 121 -14z m44 -194 c30 -26 31 -27 8 -28 -13 0 -27 -2 -33 -5 -18 -7 -131 85 -127 104 3 15 10 14 62 -14 31 -17 72 -42 90 -57z"></path><path id="p15ygUc66Z" d="M1061 1346 c10 -9 69 -36 69 -32 0 6 -55 36 -66 36 -4 0 -5 -2 -3 -4z"></path></g></g><g id="lxQYKmqPAFqwDWRZTPgJL2" fill="rgb(243,139,51)" ><g ><path id="ph2Y7Sidk" d="M875 2301 c-170 -49 -292 -163 -351 -328 -23 -67 -24 -72 -22 -443 0 -229 4 -350 8 -310 20 173 66 255 245 440 155 161 209 244 245 382 20 79 26 60 10 -36 -9 -54 -8 -61 12 -77 11 -11 35 -23 53 -28 18 -5 79 -35 136 -67 181 -101 230 -126 235 -121 3 3 13 -1 22 -8 10 -8 33 -27 53 -43 54 -42 170 -145 271 -241 l88 -85 0 -336 0 -337 -23 -21 c-39 -37 -83 -29 -217 38 -66 33 -122 60 -124 60 -3 0 0 -15 5 -32 17 -62 11 -115 -26 -201 -7 -16 5 -17 176 -17 204 0 250 8 358 61 85 42 185 142 229 229 58 116 52 170 -22 176 -25 1 -43 10 -53 23 -8 12 -25 21 -39 21 -16 0 -23 4 -18 11 10 16 -48 2 -61 -15 -5 -7 -19 -15 -31 -18 -17 -4 -14 4 21 56 63 95 90 189 88 311 0 55 -6 114 -11 130 l-10 30 -1 -26 c-1 -24 -6 -27 -41 -31 l-39 -3 -36 71 c-61 125 -178 229 -328 294 -31 14 -57 28 -57 32 0 21 56 19 123 -6 157 -58 289 -162 345 -271 38 -74 42 -64 5 13 -34 73 -138 177 -224 226 -37 20 -116 55 -175 77 -151 57 -193 80 -255 139 -30 28 -48 48 -41 45 7 -4 30 -7 50 -7 22 0 57 -11 87 -28 28 -15 102 -45 165 -65 221 -70 279 -96 369 -163 128 -96 221 -259 244 -427 2 -16 5 92 6 241 1 248 -1 278 -19 338 -56 180 -185 303 -367 350 -51 14 -134 16 -529 15 -413 0 -476 -2 -529 -18z m859 -615 c31 -14 75 -38 99 -54 44 -31 117 -101 117 -113 0 -4 -14 -10 -31 -14 -28 -6 -37 -1 -97 57 -37 34 -90 79 -119 98 -34 23 -48 37 -40 42 15 10 9 12 71 -16z"></path><path id="pp93QCPUr" d="M1070 1346 c0 -3 14 -12 30 -21 17 -9 30 -13 30 -11 0 3 -13 12 -30 21 -16 9 -30 13 -30 11z"></path></g></g><g id="l7TVTCyfNJworEQdFpEMnB" fill="rgb(240,126,52)" ><g ><path id="pQ2tX4iKj" d="M875 2301 c-170 -49 -292 -163 -351 -328 -23 -67 -24 -72 -22 -443 0 -229 4 -350 8 -310 20 173 66 255 245 440 155 161 209 244 245 382 20 79 26 60 10 -36 -9 -54 -8 -61 12 -77 11 -11 35 -23 53 -28 18 -5 79 -35 136 -67 181 -101 230 -126 235 -121 3 3 13 -1 22 -8 10 -8 33 -27 53 -43 54 -42 170 -145 271 -241 l88 -84 2 -246 3 -246 70 71 c115 116 180 250 185 379 4 105 6 101 -44 100 l-44 -2 -25 68 c-57 155 -139 238 -329 335 -94 47 -126 68 -122 79 8 20 7 20 126 -21 140 -48 251 -115 330 -198 29 -30 29 -30 -2 12 -60 80 -171 149 -350 217 -166 63 -263 127 -320 210 -36 52 -37 57 -7 45 12 -5 33 -11 47 -14 14 -3 48 -24 75 -47 62 -52 135 -86 290 -134 262 -81 395 -183 487 -372 23 -47 45 -112 53 -155 13 -69 13 -59 14 198 1 247 -1 278 -19 338 -56 180 -185 303 -367 350 -51 14 -134 16 -529 15 -413 0 -476 -2 -529 -18z m801 -588 c163 -71 248 -134 289 -214 15 -28 15 -28 -21 -35 -30 -5 -38 -3 -52 17 -42 62 -120 130 -221 194 -95 60 -126 85 -106 85 2 0 53 -21 111 -47z"></path><path id="pKkkQ2F0n" d="M1961 823 c-53 -10 -68 -30 -76 -99 -13 -123 -61 -133 -240 -49 -65 30 -118 55 -119 55 -1 0 0 -28 2 -62 3 -57 -3 -91 -33 -160 -7 -17 5 -18 176 -18 121 0 201 5 234 14 122 32 227 100 295 190 43 57 49 76 24 76 -11 0 -14 6 -9 20 7 21 1 23 -77 22 -21 0 -38 4 -38 9 0 6 -8 6 -19 -1 -14 -7 -21 -6 -24 3 -4 9 -6 9 -6 0 -1 -15 -37 -17 -46 -3 -3 6 -9 9 -13 9 -4 -1 -18 -4 -31 -6z"></path></g></g><g id="l5PMpmQynKb1n9pLqx8gxaY" fill="rgb(232,112,52)" ><g ><path id="pgnhIdbZ3" d="M875 2301 c-170 -49 -292 -163 -351 -328 -23 -67 -24 -72 -22 -443 0 -229 4 -350 8 -310 20 173 66 255 245 440 155 161 209 244 245 382 20 79 26 60 10 -36 -9 -54 -8 -61 12 -77 11 -11 35 -23 53 -28 18 -5 79 -35 136 -67 181 -101 230 -126 235 -121 3 3 13 -1 22 -8 10 -8 33 -27 53 -43 54 -42 170 -145 271 -241 l88 -84 2 -244 3 -245 70 70 c111 112 172 231 183 359 l5 62 -29 -5 c-16 -2 -35 -7 -41 -9 -8 -2 -15 7 -19 23 -27 126 -55 189 -117 270 -52 69 -131 124 -284 201 -75 37 -123 67 -123 76 0 20 16 19 86 -6 170 -61 194 -56 34 6 -52 21 -111 47 -130 58 -87 51 -185 153 -204 212 -5 18 -1 20 35 18 31 -1 45 -7 57 -25 30 -44 107 -110 162 -138 30 -15 112 -46 182 -69 276 -89 407 -188 500 -378 23 -47 45 -112 53 -155 13 -69 13 -59 14 198 1 247 -1 278 -19 338 -56 180 -185 303 -367 350 -51 14 -134 16 -529 15 -413 0 -476 -2 -529 -18z m913 -639 c74 -38 148 -105 182 -166 39 -67 39 -84 -2 -88 -30 -3 -36 1 -66 52 -18 30 -50 72 -70 93 -33 35 -167 128 -287 199 -129 78 43 14 243 -90z"></path><path id="pTi3ohSSE" d="M1890 697 c0 -36 -35 -74 -74 -81 -27 -5 -50 0 -101 23 -36 17 -63 26 -61 22 10 -16 -42 -35 -66 -25 -38 17 -58 6 -58 -29 0 -18 -9 -49 -20 -70 -11 -20 -20 -40 -20 -43 0 -4 91 -4 203 -2 181 4 208 7 262 28 69 26 150 76 182 112 l23 24 -45 3 c-27 1 -45 -2 -45 -9 0 -7 -6 -8 -17 -2 -10 5 -28 8 -41 6 -14 -2 -25 2 -28 11 -4 8 -14 15 -24 15 -9 0 -29 9 -44 21 l-26 20 0 -24z"></path></g></g><g id="l477I1yGAY66h9AWLlbp11z" fill="rgb(25,156,214)" ><g ><path id="pj2NPRhUU" d="M875 2301 c-170 -49 -292 -163 -351 -328 -23 -67 -24 -72 -22 -443 0 -229 4 -350 8 -310 20 173 66 255 245 440 155 161 209 244 245 382 20 79 26 60 10 -36 -9 -54 -8 -61 12 -77 11 -11 35 -23 53 -28 18 -5 79 -35 136 -67 181 -101 230 -126 235 -121 3 3 13 -1 22 -8 10 -8 33 -27 53 -43 54 -42 170 -145 271 -241 l88 -85 0 -238 c0 -131 4 -238 9 -238 21 0 149 151 183 216 31 59 68 165 68 196 0 4 -14 2 -30 -4 -46 -16 -60 -5 -60 45 0 117 -63 252 -164 353 -63 62 -89 79 -226 147 -149 73 -288 166 -262 175 7 2 55 -17 108 -43 52 -26 97 -45 99 -43 2 2 -26 19 -63 38 -91 46 -212 167 -235 235 -24 70 -23 75 21 75 35 0 39 -3 66 -55 29 -55 115 -143 165 -169 14 -8 93 -37 175 -66 235 -81 339 -142 433 -251 59 -69 120 -195 137 -284 14 -67 14 -58 15 196 1 242 -1 273 -19 333 -56 180 -185 303 -367 350 -51 14 -134 16 -529 15 -413 0 -476 -2 -529 -18z m632 -500 c27 -16 86 -46 132 -66 197 -84 289 -150 344 -248 28 -51 52 -141 42 -157 -3 -5 -21 -10 -40 -10 -32 0 -35 3 -46 42 -19 73 -59 140 -118 198 -52 52 -94 80 -277 189 -71 42 -117 81 -96 81 7 0 33 -13 59 -29z"></path><path id="pLh8JVO3q" d="M916 1775 c-9 -13 -16 -29 -16 -35 0 -5 -4 -10 -8 -10 -11 0 -89 -121 -117 -182 -22 -48 -28 -69 -36 -118 -1 -8 -5 8 -8 35 -6 48 -7 49 -19 26 -8 -13 -10 -21 -5 -18 5 3 8 -10 6 -30 -1 -20 1 -41 6 -47 5 -6 11 -44 15 -85 6 -64 4 -72 -8 -62 -8 7 -21 46 -27 86 -7 41 -16 72 -21 69 -5 -3 -8 -11 -7 -17 1 -7 -1 -29 -5 -50 -12 -55 10 -182 43 -254 16 -34 49 -83 73 -109 27 -29 35 -43 21 -36 -12 7 -25 16 -28 22 -6 10 -11 8 -72 -24 -18 -9 -33 -14 -33 -10 0 4 -20 -14 -45 -40 -40 -42 -45 -54 -45 -93 0 -81 97 -188 225 -249 88 -42 150 -54 281 -54 l103 0 12 41 c14 44 1 118 -25 149 -7 8 -15 22 -18 30 -3 8 -25 40 -50 70 -24 30 -52 68 -62 84 l-18 28 43 -23 c52 -29 146 -114 170 -153 l18 -30 11 28 c5 15 10 32 10 37 0 6 5 7 10 4 6 -3 10 -1 10 6 0 27 -158 165 -243 212 -48 27 -98 62 -112 79 l-25 30 0 333 c0 193 4 345 10 359 12 33 7 33 -14 1z m17 -824 c-2 -3 -16 8 -31 24 l-27 28 31 -24 c17 -13 30 -26 27 -28z m102 -111 c21 -22 37 -40 34 -40 -3 0 -23 18 -44 40 -21 22 -37 40 -34 40 3 0 23 -18 44 -40z"></path></g></g><g id="l40cPB2scGhf2lg0aIHSqXQ" fill="rgb(75,123,182)" ><g ><path id="pkZSoIhUh" d="M875 2301 c-170 -49 -292 -163 -351 -328 -23 -67 -24 -73 -23 -423 1 -321 2 -348 14 -285 29 155 81 242 249 412 138 139 185 209 220 328 14 44 29 96 35 115 9 30 9 27 5 -25 -4 -33 -10 -80 -15 -104 -9 -38 -7 -45 12 -62 12 -10 36 -23 54 -28 18 -5 79 -35 136 -67 181 -101 230 -126 235 -121 3 3 13 -1 22 -8 10 -8 35 -28 57 -45 22 -18 67 -56 100 -86 33 -30 103 -94 157 -142 l96 -87 1 -242 c1 -134 5 -243 10 -243 21 0 149 151 183 216 31 59 68 165 68 196 0 4 -14 2 -30 -4 -46 -16 -60 -5 -60 45 0 117 -63 252 -164 353 -63 62 -89 79 -226 147 -149 73 -288 166 -262 175 7 2 55 -17 108 -43 52 -26 97 -45 99 -43 2 2 -26 19 -63 38 -91 46 -212 167 -235 235 -24 70 -23 75 21 75 35 0 39 -3 66 -55 29 -55 115 -143 165 -169 14 -8 93 -37 175 -66 235 -81 339 -142 433 -251 59 -69 120 -195 137 -284 14 -67 14 -58 15 196 1 242 -1 273 -19 333 -56 180 -185 303 -367 350 -51 14 -134 16 -529 15 -413 0 -476 -2 -529 -18z m632 -500 c27 -16 86 -46 132 -66 197 -84 289 -150 344 -248 28 -51 52 -141 42 -157 -3 -5 -21 -10 -40 -10 -32 0 -35 3 -46 42 -19 73 -59 140 -118 198 -52 52 -94 80 -277 189 -71 42 -117 81 -96 81 7 0 33 -13 59 -29z"></path><path id="p1Ch4dWiuH" d="M1067 1773 c-4 -4 64 -42 150 -86 284 -143 498 -258 514 -277 9 -11 19 -16 22 -13 17 17 -26 50 -141 107 -70 35 -218 111 -330 170 -222 116 -206 109 -215 99z"></path><path id="pBLZX6JdC" d="M864 1689 c-104 -150 -141 -260 -130 -383 6 -60 4 -67 -8 -57 -8 7 -21 47 -28 88 -15 92 -25 71 -27 -55 -2 -184 78 -310 279 -437 50 -32 89 -59 87 -61 -2 -2 -18 2 -36 9 -28 10 -34 10 -42 -6 -6 -9 -15 -14 -21 -11 -7 5 -9 2 -5 -9 4 -11 -3 -18 -24 -26 -22 -8 -29 -16 -29 -37 0 -19 -4 -25 -15 -20 -8 3 -15 2 -15 -3 0 -5 -10 -12 -22 -15 -39 -10 -92 -61 -85 -80 9 -22 118 -73 186 -86 30 -5 100 -10 156 -10 117 0 115 -2 115 96 0 42 -6 61 -39 110 -21 32 -70 87 -108 120 -38 34 -93 90 -123 125 -30 35 -43 54 -30 42 14 -11 70 -49 125 -83 55 -34 121 -79 146 -101 l47 -38 5 42 c4 39 2 45 -37 79 -22 20 -80 60 -128 89 -145 86 -132 44 -138 447 l-5 346 -51 -75z"></path><path id="pBbXuDc5S" d="M1695 1308 c11 -6 28 -18 38 -26 9 -8 17 -11 17 -6 0 10 -52 44 -67 44 -4 0 1 -6 12 -12z"></path></g></g><g id="l63fBM5BGYWbil6yEpL7qWw" fill="rgb(228,84,39)" ><g ><path id="pSYOHBIkp" d="M870 2297 c-174 -52 -294 -166 -345 -328 -25 -79 -25 -83 -24 -427 1 -315 2 -341 14 -277 28 154 82 243 242 404 124 124 180 200 213 289 28 73 60 214 60 260 0 35 1 34 38 -40 54 -107 124 -197 244 -313 100 -98 334 -301 367 -319 24 -14 74 -56 65 -56 -4 0 -17 8 -28 17 -16 13 -15 11 3 -9 13 -15 28 -25 33 -22 5 3 7 2 6 -3 -2 -5 25 -35 60 -67 l62 -58 0 -244 c0 -134 4 -244 9 -244 21 0 149 151 183 216 31 59 68 165 68 196 0 4 -14 2 -30 -4 -46 -16 -60 -5 -60 45 0 117 -63 252 -164 353 -63 62 -89 79 -226 147 -149 73 -288 166 -262 175 7 2 55 -17 108 -43 52 -26 97 -45 99 -43 2 2 -26 19 -63 38 -91 46 -212 167 -235 235 -24 70 -23 75 21 75 35 0 39 -3 66 -55 29 -55 115 -143 165 -169 14 -8 93 -37 175 -66 165 -57 267 -105 336 -157 110 -83 207 -240 234 -378 14 -67 14 -59 15 190 1 289 -5 331 -62 439 -38 73 -124 161 -192 198 -28 15 -84 36 -125 47 -71 20 -99 21 -535 20 -446 0 -462 -1 -535 -22z m637 -496 c27 -16 86 -46 132 -66 197 -84 289 -150 344 -248 28 -51 52 -141 42 -157 -3 -5 -21 -10 -40 -10 -32 0 -35 3 -46 42 -19 73 -59 140 -118 198 -52 52 -94 80 -277 189 -71 42 -117 81 -96 81 7 0 33 -13 59 -29z"></path></g></g><g id="l4wamXmqPGQTkrrO71dF1ZJ" fill="rgb(25,119,191)" ><g ><path id="p12HaX7RMg" d="M870 2297 c-174 -52 -294 -166 -345 -328 -25 -79 -25 -83 -24 -427 1 -315 2 -341 14 -277 28 154 82 243 242 404 124 124 180 200 213 289 28 73 60 214 60 260 0 35 1 34 38 -40 54 -107 124 -197 244 -313 100 -98 334 -301 367 -319 24 -14 74 -56 65 -56 -4 0 -17 8 -28 17 -16 13 -15 11 3 -9 13 -15 28 -25 33 -22 5 3 7 2 6 -3 -2 -5 25 -35 59 -66 l61 -57 4 -234 c1 -129 7 -238 12 -243 19 -19 180 184 201 255 6 22 5 23 -29 17 l-35 -7 6 56 6 56 -32 -16 c-17 -9 -37 -14 -44 -11 -7 3 -18 40 -24 86 -16 106 -53 183 -122 251 -53 52 -91 78 -287 194 -90 53 -193 140 -181 152 4 4 20 -2 35 -14 51 -42 157 -110 196 -126 47 -20 52 -20 36 -1 -11 13 -8 15 16 17 16 1 40 1 54 0 14 -1 -21 21 -82 52 -59 30 -130 70 -157 90 -114 84 -188 199 -212 329 l-12 67 -141 -1 c-116 0 -155 -4 -216 -22z"></path><path id="p16ff9nlYZ" d="M1077 1773 c-3 -5 96 -60 220 -123 124 -63 277 -143 340 -177 63 -33 113 -57 111 -51 -2 6 -76 47 -163 92 -221 114 -434 225 -472 248 -17 10 -34 15 -36 11z"></path><path id="phodd035J" d="M901 1743 c-5 -10 -10 -22 -11 -28 -1 -5 -4 -12 -7 -15 -4 -3 -3 2 1 10 4 8 -2 4 -13 -10 -11 -14 -19 -31 -16 -37 2 -7 -1 -12 -7 -10 -19 4 -87 -135 -104 -213 -15 -63 -15 -87 -6 -153 23 -161 107 -276 276 -380 55 -34 125 -81 154 -105 l52 -42 0 29 c0 16 3 36 6 44 7 19 -84 91 -193 152 -129 72 -126 60 -122 456 3 176 3 319 2 319 -1 0 -7 -8 -12 -17z"></path><path id="p1Cv8v9er0" d="M678 1381 c-15 -65 -9 -179 12 -242 41 -120 111 -200 260 -294 50 -32 89 -59 87 -61 -2 -2 -18 2 -36 9 -28 10 -34 10 -42 -6 -6 -9 -15 -14 -21 -11 -7 5 -9 2 -5 -9 4 -11 -3 -18 -24 -26 -22 -8 -29 -16 -29 -37 0 -19 -4 -25 -15 -20 -8 3 -15 2 -15 -3 0 -5 -10 -12 -22 -15 -38 -10 -92 -61 -85 -79 7 -19 69 -52 136 -74 26 -8 103 -17 177 -20 l131 -6 6 24 c17 61 8 124 -24 175 -32 49 -257 279 -271 276 -5 -1 -8 3 -8 10 0 6 -3 8 -6 5 -4 -3 -14 -2 -23 3 -26 13 -127 160 -142 205 -7 22 -18 46 -24 54 -8 12 -7 13 5 6 12 -7 13 -6 3 6 -7 8 -13 48 -15 89 -2 61 -4 69 -10 41z"></path></g></g><g id="lae1NSBc5z5nnleu8Yz75r" fill="rgb(22,106,177)" ><g ><path id="pEpbzxYqR" d="M945 2313 c-199 -26 -361 -159 -420 -344 -25 -79 -25 -83 -24 -422 1 -207 4 -323 9 -295 14 81 49 174 91 238 22 34 100 123 173 199 111 114 140 150 169 212 46 97 87 246 87 322 l0 42 24 -56 c59 -145 196 -301 455 -523 84 -72 161 -135 170 -140 24 -14 74 -56 65 -56 -4 0 -17 8 -28 17 -16 13 -15 11 3 -9 13 -15 28 -25 33 -22 5 3 7 2 6 -3 -2 -5 25 -35 59 -66 l61 -57 4 -234 c1 -129 7 -238 12 -243 19 -19 180 184 201 255 6 22 5 23 -29 17 l-35 -7 6 56 6 56 -32 -16 c-17 -9 -37 -14 -44 -11 -7 3 -18 40 -24 86 -16 106 -53 183 -122 251 -53 52 -91 78 -287 194 -90 53 -193 140 -181 152 4 4 20 -2 35 -14 51 -42 157 -110 196 -126 47 -20 52 -20 36 -1 -11 13 -8 15 16 17 16 1 40 1 54 0 14 -1 -21 21 -82 52 -59 30 -130 70 -157 90 -114 84 -188 199 -212 329 l-12 67 -103 0 -102 0 -7 -62 c-8 -77 -33 -164 -51 -179 -11 -9 -13 -1 -8 47 10 113 14 138 29 161 18 27 19 33 3 32 -7 -1 -26 -4 -43 -6z"></path><path id="pRk1PWfGa" d="M902 1697 c-19 -23 -72 -141 -79 -177 l-7 -35 -11 45 -11 44 -22 -51 c-78 -183 -23 -412 130 -535 23 -19 94 -67 156 -106 102 -64 112 -69 112 -48 0 12 5 27 11 33 12 12 -69 73 -175 133 -96 54 -98 61 -94 415 2 162 2 295 2 295 -1 0 -6 -6 -12 -13z"></path><path id="pdaUP3ytd" d="M1532 1535 c16 -17 218 -122 218 -114 0 5 -51 34 -112 65 -62 31 -110 53 -106 49z"></path><path id="pFdJ8tkst" d="M671 1284 c-2 -122 47 -241 135 -329 20 -21 89 -71 152 -112 64 -41 138 -98 165 -126 54 -56 56 -50 -18 -78 -34 -14 -41 -15 -72 -17 -12 -1 -30 -10 -40 -21 -25 -26 -106 -71 -129 -72 -10 0 1 -7 26 -15 25 -9 100 -18 167 -21 l122 -6 11 27 c14 38 12 101 -4 141 -20 46 -84 114 -180 189 -183 143 -301 309 -325 456 l-9 55 -1 -71z"></path></g></g><g id="l5ikBebiZnGaebe7KSlJjfx" fill="rgb(214,30,35)" ><g ><path id="pGYe5ODx9" d="M1045 2249 c60 -174 178 -319 457 -557 59 -50 138 -111 175 -136 74 -49 194 -162 192 -180 -1 -6 1 -18 4 -26 3 -8 7 -117 9 -242 2 -124 7 -230 12 -235 19 -19 180 184 201 255 6 22 5 23 -29 17 l-35 -7 6 56 6 56 -32 -16 c-17 -9 -37 -14 -44 -11 -7 3 -18 40 -24 86 -16 106 -53 183 -122 251 -53 52 -91 78 -287 194 -90 53 -193 140 -181 152 4 4 20 -2 35 -14 51 -42 157 -110 196 -126 47 -20 52 -20 36 -1 -11 13 -8 15 16 17 16 1 40 1 54 0 14 -1 -21 21 -82 52 -59 30 -130 70 -157 90 -114 84 -188 199 -212 329 l-12 67 -103 0 -103 0 24 -71z"></path><path id="pKBuxVbEa" d="M1360 2305 c0 -44 47 -134 99 -188 71 -75 106 -95 271 -152 152 -54 273 -111 340 -162 110 -83 207 -240 234 -378 14 -67 14 -59 15 190 1 289 -5 331 -62 439 -38 73 -124 161 -192 198 -108 58 -175 68 -452 68 -215 0 -253 -2 -253 -15z"></path></g></g><g id="l5LQxbnPwR9WGPDpvNmXKLC" fill="rgb(21,90,154)" ><g ><path id="p3D4qZRqr" d="M1045 2249 c60 -174 178 -319 457 -557 59 -50 138 -111 175 -136 82 -54 196 -164 189 -182 -3 -7 -1 -16 4 -19 6 -4 10 -80 11 -178 0 -95 3 -190 7 -211 l7 -40 28 33 c40 47 77 114 93 166 l13 46 -47 -7 -47 -6 0 114 c0 105 -2 117 -29 173 -52 106 -118 160 -376 311 -117 68 -239 188 -280 276 -30 64 -56 173 -38 162 4 -3 8 -12 8 -21 0 -21 65 -152 90 -182 15 -18 23 -21 33 -12 8 6 18 7 22 3 5 -4 1 4 -8 18 -84 120 -114 187 -124 272 l-6 48 -103 0 -103 0 24 -71z"></path><path id="pPZNHGB6f" d="M1364 2288 c12 -63 57 -136 115 -191 67 -61 107 -82 270 -139 134 -47 256 -106 321 -155 110 -83 207 -240 234 -378 14 -67 14 -59 15 190 1 289 -5 331 -62 439 -38 73 -124 161 -192 198 -108 58 -175 68 -454 68 l-253 0 6 -32z"></path><path id="pXfKewv3f" d="M840 2286 c-169 -63 -274 -175 -324 -345 -13 -45 -16 -112 -15 -390 1 -321 1 -333 15 -268 32 147 78 220 255 403 160 166 202 242 244 444 24 119 17 141 -11 34 -16 -63 -65 -149 -94 -164 -17 -9 -18 -2 -22 98 -2 59 0 128 3 155 6 52 4 53 -51 33z"></path><path id="phtbZFdf9" d="M867 1624 c-41 -88 -56 -145 -57 -219 l0 -50 -22 34 c-14 22 -22 49 -21 75 l0 41 -13 -40 c-20 -65 -17 -196 7 -268 29 -86 97 -177 172 -231 97 -69 198 -128 195 -114 -1 7 3 23 10 35 11 19 7 24 -41 56 -28 18 -74 46 -100 62 -81 47 -81 47 -87 394 l-5 303 -38 -78z"></path><path id="p1GDEvCDA2" d="M1685 1453 c17 -8 38 -22 48 -31 10 -9 17 -11 17 -4 0 11 -70 52 -87 52 -4 -1 6 -8 22 -17z"></path><path id="pA941r1bO" d="M671 1265 c-1 -55 24 -148 56 -207 36 -67 132 -154 240 -219 48 -29 116 -81 151 -115 66 -66 70 -65 16 2 -19 23 -66 66 -106 95 -119 86 -193 155 -246 227 -64 86 -81 121 -97 196 -13 57 -13 58 -14 21z"></path><path id="pjg8sUFgS" d="M1191 549 c-1 -11 -20 -21 -63 -32 -55 -13 -59 -16 -28 -17 19 -1 45 -3 58 -6 17 -3 25 2 33 23 5 14 8 31 5 37 -2 6 -5 4 -5 -5z"></path></g></g><g id="l1Wo5CcwWN2exN6w7ol2los" fill="rgb(19,77,142)" ><g ><path id="pQmc6j98w" d="M1100 2297 c68 -59 79 -96 51 -171 -10 -25 -13 -27 -28 -15 -43 36 51 -99 131 -187 67 -75 241 -224 261 -224 18 0 192 -111 264 -169 24 -20 57 -54 73 -75 l28 -39 1 -206 c0 -113 3 -224 7 -245 l7 -40 28 33 c40 47 77 114 93 166 l13 46 -47 -7 -47 -6 0 114 c0 105 -2 117 -29 173 -52 106 -118 160 -376 311 -117 68 -239 188 -280 276 -30 64 -56 173 -38 162 4 -3 8 -12 8 -21 0 -21 65 -152 90 -182 15 -18 23 -21 33 -12 8 6 18 7 22 3 5 -4 1 4 -8 18 -84 120 -114 187 -124 272 l-6 48 -76 0 -76 0 25 -23z"></path><path id="p14RYaVX52" d="M1364 2288 c12 -63 57 -136 115 -191 67 -61 107 -82 270 -139 134 -47 256 -106 321 -155 110 -83 207 -240 234 -378 14 -67 14 -59 15 190 1 289 -5 331 -62 439 -87 166 -293 279 -483 263 -59 -4 -68 -8 -105 -45 -34 -35 -48 -41 -87 -44 -53 -3 -94 12 -135 50 -20 19 -24 28 -15 34 8 4 -5 8 -31 8 l-43 0 6 -32z"></path><path id="pxn2SMdgs" d="M731 2233 c-105 -62 -181 -169 -215 -300 -13 -50 -16 -121 -15 -389 1 -307 2 -325 15 -264 32 150 81 228 254 406 110 113 134 143 169 215 35 74 70 186 71 228 0 8 -11 -7 -25 -35 -23 -47 -139 -173 -150 -163 -9 10 -24 143 -27 242 -1 53 -5 97 -8 97 -3 0 -34 -17 -69 -37z"></path><path id="pRdFPNdqM" d="M868 1620 c-62 -124 -71 -229 -28 -342 17 -45 17 -47 1 -38 -26 13 -68 80 -76 120 -14 70 -24 66 -25 -11 0 -194 91 -330 304 -454 l49 -29 -6 32 c-5 26 -3 32 11 32 20 0 -18 28 -90 65 -25 14 -57 39 -70 57 -23 32 -23 38 -28 338 l-5 305 -37 -75z"></path><path id="peZiEEtVR" d="M676 1220 c19 -155 93 -253 284 -375 58 -37 120 -82 139 -99 18 -17 31 -24 29 -16 -3 8 -43 43 -89 78 -238 177 -312 263 -355 411 l-14 46 6 -45z"></path></g></g><g id="l3Sme6IfgcCqNjrBR9cvxuU" fill="rgb(151,46,36)" ><g ><path id="pI8DrspJq" d="M1132 2265 c57 -60 72 -93 58 -131 -6 -14 -11 -37 -12 -53 -1 -21 -6 -27 -17 -23 -21 8 42 -77 108 -147 90 -93 185 -168 225 -175 20 -4 36 -11 36 -16 0 -6 5 -10 12 -10 10 0 155 -95 168 -110 3 -3 19 -15 36 -25 50 -32 101 -81 118 -114 13 -24 16 -69 17 -243 0 -117 3 -231 7 -252 l7 -40 28 33 c40 47 77 114 93 166 l13 46 -47 -7 -47 -6 0 114 c0 105 -2 117 -29 173 -52 106 -118 160 -376 311 -117 68 -239 188 -280 276 -30 64 -56 173 -38 162 4 -3 8 -12 8 -21 0 -21 65 -152 90 -182 15 -18 23 -21 33 -12 8 6 18 7 22 3 5 -4 1 4 -8 18 -84 120 -114 187 -124 272 l-6 48 -74 0 -74 0 53 -55z"></path><path id="pcGjoHzVX" d="M1364 2288 c12 -63 57 -136 115 -191 67 -61 107 -82 270 -139 134 -47 256 -106 321 -155 110 -83 207 -240 234 -378 14 -67 14 -59 15 190 1 204 -2 274 -14 320 -51 192 -206 337 -399 369 -92 16 -108 12 -131 -32 -29 -52 -101 -105 -134 -97 -55 13 -181 79 -212 111 -18 19 -42 34 -52 34 -17 0 -19 -5 -13 -32z"></path></g></g><g id="lW6HnPnEw41ReFAkz7pHgf" fill="rgb(18,67,129)" ><g ><path id="pdmWprXjP" d="M1132 2265 c29 -31 56 -65 60 -78 4 -15 6 -7 7 24 1 26 4 61 7 78 l7 31 -67 0 -67 0 53 -55z"></path><path id="poJEHgxVq" d="M1366 2293 c35 -152 154 -256 374 -328 117 -38 274 -116 342 -170 103 -83 191 -221 223 -353 12 -54 13 -42 14 188 1 191 -2 259 -14 305 -51 192 -206 337 -399 369 -92 16 -108 12 -131 -32 -29 -52 -101 -105 -134 -97 -55 13 -181 79 -212 111 -42 43 -72 46 -63 7z"></path><path id="p3S0vEEbs" d="M680 2195 c-52 -39 -101 -103 -132 -172 -45 -102 -48 -131 -47 -478 1 -308 2 -326 15 -265 32 150 81 228 254 406 111 113 134 143 169 216 44 90 48 103 29 92 -8 -5 -9 -2 -5 9 11 29 -9 27 -39 -4 -55 -57 -174 -150 -176 -137 -1 11 -2 76 -7 306 0 34 -4 62 -8 62 -5 0 -28 -16 -53 -35z"></path><path id="pZDHXZFlo" d="M1183 2108 c-4 -24 -6 -46 -5 -50 1 -4 -6 -4 -15 -1 -23 9 36 -72 106 -146 90 -93 185 -168 225 -175 20 -4 36 -11 36 -16 0 -6 5 -10 12 -10 10 0 155 -95 168 -110 3 -3 19 -15 36 -25 50 -32 101 -81 118 -114 11 -20 17 -61 18 -128 l1 -98 7 110 c6 95 4 114 -12 141 -39 68 -143 148 -324 252 -94 54 -185 123 -232 177 -47 54 -98 147 -107 198 -9 49 -23 47 -32 -5z"></path><path id="ppgUm7C7Y" d="M874 1629 c-49 -100 -57 -133 -52 -228 3 -75 9 -98 41 -165 35 -75 47 -126 28 -126 -5 0 -28 23 -52 51 -45 52 -74 108 -89 169 l-8 35 -1 -46 c-1 -49 21 -133 49 -190 38 -73 176 -200 247 -226 17 -6 17 -5 2 13 -8 10 -23 32 -33 48 -16 25 -16 28 -2 23 27 -10 18 0 -18 21 -70 42 -70 42 -76 380 l-5 304 -31 -63z"></path><path id="p12pN6lfe8" d="M680 1194 c0 -6 8 -33 17 -60 39 -116 115 -198 268 -292 99 -60 106 -55 12 9 -142 96 -229 191 -273 296 -13 32 -24 53 -24 47z"></path></g></g><g id="l1uITXrLseBWEQG415krzo2" fill="rgb(13,73,118)" ><g ><path id="pvJal8AR1" d="M1100 2297 c14 -12 42 -41 63 -65 l38 -43 -1 38 c-1 21 2 50 6 66 l6 27 -68 0 -69 0 25 -23z"></path><path id="pNyuDRkOw" d="M1366 2293 c35 -152 154 -256 374 -328 117 -38 274 -116 342 -170 103 -83 191 -221 223 -353 12 -54 13 -42 14 188 1 191 -2 259 -14 305 -47 178 -181 313 -357 359 l-53 14 -12 -27 c-6 -14 -38 -52 -71 -84 l-59 -59 -75 21 c-88 24 -212 88 -253 131 -38 40 -68 41 -59 3z"></path><path id="p2HIWKS35" d="M631 2145 c-56 -59 -91 -126 -116 -220 -12 -48 -15 -121 -14 -385 1 -303 2 -321 15 -260 7 36 21 84 30 107 27 73 108 184 198 273 47 46 86 90 86 97 0 7 6 13 13 13 19 0 73 78 108 155 32 71 34 79 18 70 -6 -4 -9 -1 -7 6 1 8 0 16 -3 19 -6 4 -123 -100 -263 -233 -28 -26 -42 -34 -47 -25 -4 7 -6 15 -3 20 3 4 9 78 15 165 6 87 12 174 14 194 1 20 5 41 9 48 15 24 -3 9 -53 -44z"></path><path id="pUMfi2x2P" d="M1183 2108 c-4 -24 -6 -46 -5 -50 1 -4 -6 -4 -15 -1 -23 9 38 -75 90 -124 22 -21 52 -51 66 -66 52 -56 131 -119 162 -127 29 -9 30 -8 16 8 -9 9 -16 21 -15 25 0 5 -4 12 -8 15 -4 4 -4 0 0 -8 4 -8 -1 -4 -12 9 -10 13 -24 21 -29 18 -6 -4 -17 1 -24 10 -12 14 -12 16 1 8 13 -8 13 -7 1 8 -8 10 -16 15 -19 13 -2 -3 -20 11 -39 32 -72 78 -126 171 -138 235 -10 49 -23 47 -32 -5z"></path><path id="pqqj9ItS2" d="M1533 1730 c-1 -12 5 -21 15 -22 9 0 22 -2 27 -3 6 -2 17 -3 25 -4 12 -1 12 -3 2 -10 -10 -6 -4 -14 25 -32 21 -13 44 -24 52 -24 8 0 19 -9 25 -20 15 -27 28 -36 44 -30 7 3 11 1 8 -4 -7 -10 42 -45 63 -46 8 0 23 -13 35 -28 18 -24 22 -46 26 -150 l5 -122 6 110 c4 87 3 115 -9 135 -23 40 -64 80 -75 73 -6 -3 -7 -2 -4 4 11 17 -80 86 -213 161 -52 29 -56 30 -57 12z"></path></g></g><g id="lXc5DKz0DJCnKlt8C4OFvu" fill="rgb(18,56,118)" ><g ><path id="p1A0XDNuVh" d="M1884 2285 c-3 -12 -34 -50 -68 -84 l-63 -63 -77 21 c-43 12 -95 30 -116 41 -22 11 -54 20 -73 20 -25 0 -42 9 -67 35 -56 57 -65 43 -26 -40 51 -110 162 -190 346 -250 117 -38 274 -116 342 -170 103 -83 191 -221 223 -353 12 -54 13 -42 14 188 1 273 -5 317 -62 424 -65 124 -184 213 -327 245 -37 8 -41 7 -46 -14z"></path><path id="pPYbAKrYs" d="M1192 2220 c0 -19 2 -27 5 -17 2 9 2 25 0 35 -3 9 -5 1 -5 -18z"></path><path id="pqBIORhYa" d="M631 2145 c-29 -30 -63 -79 -76 -107 -51 -112 -55 -149 -54 -488 l0 -315 19 71 c35 136 94 228 233 364 64 63 75 79 70 99 -9 36 -10 63 -2 98 6 28 5 31 -10 23 -9 -5 -47 -38 -86 -74 -45 -43 -72 -61 -76 -54 -4 7 -6 15 -3 20 3 4 9 78 15 165 6 87 12 174 14 194 1 20 5 41 9 48 15 24 -3 9 -53 -44z"></path><path id="p168dY6kPP" d="M849 1574 c-20 -49 -24 -77 -24 -159 1 -87 4 -108 27 -158 59 -126 58 -127 58 133 0 137 -4 229 -9 221 -7 -11 -11 -10 -19 4 -8 15 -13 8 -33 -41z m42 -24 c5 0 9 -7 9 -16 0 -8 -4 -13 -10 -9 -5 3 -13 -9 -18 -27 l-9 -33 -7 32 c-4 18 -2 49 6 75 l12 43 4 -32 c2 -18 7 -33 13 -33z"></path><path id="pMvncTsvm" d="M741 1310 c-2 -73 50 -197 114 -267 41 -46 135 -121 135 -108 0 10 -51 76 -111 142 -61 68 -113 158 -128 219 -7 28 -9 32 -10 14z"></path><path id="p1H0IMADXL" d="M696 1140 c21 -83 96 -180 183 -239 148 -100 192 -119 64 -27 -123 87 -194 163 -233 247 -11 24 -17 33 -14 19z"></path></g></g><g id="l56iwpnr3m3fLFY47HDn6kU" fill="rgb(17,52,89)" ><g ><path id="ppD210t6F" d="M1370 2278 c0 -31 51 -118 97 -165 57 -58 146 -107 273 -148 117 -38 274 -116 342 -170 103 -83 191 -221 223 -353 12 -54 13 -42 14 188 1 273 -5 317 -62 424 -38 74 -120 157 -187 191 -27 14 -52 25 -55 25 -3 0 -5 -18 -5 -41 0 -37 -6 -46 -52 -90 -29 -27 -56 -49 -61 -49 -19 0 -303 94 -339 111 -21 11 -52 19 -71 19 -25 0 -42 9 -67 35 -36 37 -50 43 -50 23z"></path><path id="p1HSZhIneR" d="M1250 2007 c0 -15 38 -78 43 -70 3 4 -6 24 -19 43 -13 19 -24 31 -24 27z"></path><path id="pzI18IKdf" d="M1300 1927 c0 -2 15 -16 33 -33 l32 -29 -29 33 c-28 30 -36 37 -36 29z"></path><path id="p1CX0H5B9y" d="M725 1808 c-67 -69 -101 -114 -133 -176 -51 -97 -92 -249 -91 -336 l0 -61 19 71 c35 136 94 228 233 364 64 63 75 79 70 99 -9 36 -10 63 -2 99 4 17 4 32 0 32 -3 0 -47 -42 -96 -92z"></path><path id="pnENgW79V" d="M1544 1738 c10 -7 35 -25 55 -40 20 -15 74 -53 121 -85 155 -106 159 -112 162 -278 l1 -100 7 110 c4 64 2 118 -3 129 -31 63 -163 170 -302 245 -33 17 -52 26 -41 19z"></path></g></g><g id="l6Tt4zHQiw7zbVTeacX93y7" fill="rgb(40,39,79)" ><g ><path id="piZnGtA9M" d="M2010 2229 c0 -37 -6 -46 -52 -90 -29 -27 -57 -49 -63 -49 -6 0 -26 -13 -45 -30 -19 -16 -41 -29 -49 -30 -8 0 -22 -7 -32 -16 -9 -8 -31 -16 -48 -18 -51 -4 -44 -11 32 -35 306 -99 492 -273 551 -517 14 -56 14 -49 15 186 1 273 -5 317 -62 424 -38 74 -120 157 -187 191 -27 14 -52 25 -55 25 -3 0 -5 -18 -5 -41z"></path><path id="p19sBbb331" d="M1652 1670 c7 -11 18 -20 25 -20 19 0 16 6 -12 24 -25 17 -25 16 -13 -4z"></path><path id="ps1FWaO7l" d="M580 1596 c-43 -91 -66 -175 -75 -276 l-5 -65 20 68 c21 72 49 133 82 179 11 16 17 32 13 37 -3 5 0 13 6 17 8 5 9 3 4 -7 -8 -12 -6 -12 8 0 18 14 23 26 8 17 -14 -9 -19 15 -10 46 4 15 4 30 -1 33 -5 3 -7 12 -3 20 3 8 2 15 -2 15 -3 0 -24 -38 -45 -84z"></path><path id="py6TSpq6J" d="M1700 1641 c0 -13 28 -33 41 -29 6 2 0 12 -15 21 -14 10 -26 13 -26 8z"></path><path id="pcGfZKVtq" d="M1761 1603 c0 -5 17 -21 37 -37 l37 -30 -34 37 c-36 38 -42 42 -40 30z"></path><path id="p7Vik2q7X" d="M1857 1503 c14 -21 19 -55 23 -148 l5 -120 6 110 c5 104 4 112 -18 148 -13 20 -26 37 -28 37 -3 0 3 -12 12 -27z"></path></g></g><g id="lw9WiWGj0oOzDOqcPgakQt" fill="rgb(52,34,69)" ><g ><path id="pvv7naeEY" d="M2171 2087 c-12 -34 -28 -81 -34 -105 l-12 -43 -41 35 c-55 47 -157 98 -180 89 -12 -4 -15 -3 -10 5 13 22 -22 13 -52 -13 -17 -14 -36 -25 -43 -25 -7 0 -20 -7 -30 -16 -9 -8 -31 -16 -48 -18 -51 -4 -44 -11 32 -35 306 -99 492 -273 551 -517 14 -56 14 -49 15 186 1 188 -3 259 -14 303 -16 63 -50 135 -87 184 l-24 32 -23 -62z"></path><path id="pUiscmC0q" d="M1882 1360 l1 -125 7 110 c3 61 3 117 -2 125 -4 8 -7 -41 -6 -110z"></path></g></g><g id="l16IqrvOP9IJewihEFy3kfX" fill="rgb(21,28,50)" ><g ><path id="pfIoYd6HD" d="M1842 2055 c-17 -14 -36 -25 -43 -25 -7 0 -20 -7 -30 -16 -10 -9 -32 -17 -49 -18 -16 0 -30 -5 -30 -9 0 -5 6 -7 14 -4 8 3 16 3 18 -1 2 -4 43 -22 91 -40 170 -64 291 -146 373 -253 44 -58 104 -171 104 -198 0 -8 2 -12 4 -10 8 8 -14 151 -31 204 -36 112 -108 230 -177 288 -59 49 -159 99 -182 90 -12 -4 -15 -3 -10 5 13 22 -22 13 -52 -13z"></path><path id="puLT9hMDM" d="M581 1598 c-41 -88 -56 -146 -65 -243 l-5 -60 19 60 c11 33 35 86 55 119 19 32 33 62 30 66 -3 5 0 12 6 16 8 5 9 3 4 -7 -8 -12 -6 -12 8 0 18 14 23 26 8 17 -14 -9 -19 15 -10 46 4 15 4 30 -1 33 -5 3 -7 12 -3 20 3 8 2 15 -2 15 -3 0 -23 -37 -44 -82z"></path></g></g></svg>
